<?xml version="1.0" encoding="UTF-8"?>
<svg width="150px" height="59px" viewBox="0 0 150 59" version="1.1" xmlns="http://www.w3.org/2000/svg" xmlns:xlink="http://www.w3.org/1999/xlink">
    <!-- Generator: Sketch 48.2 (47327) - http://www.bohemiancoding.com/sketch -->
    <title>8bar-logo</title>
    <desc>Created with Sketch.</desc>
    <defs></defs>
    <g id="0.0---IBM.com" stroke="none" stroke-width="1" fill="none" fill-rule="evenodd" transform="translate(-1080.000000, -216.000000)">
        <g id="nav/element/8bar-logo-white" transform="translate(1080.000000, 216.000000)" fill="#FFFFFF">
            <polygon id="Fill-1" points="0 3.75943167 29.0981965 3.75943167 29.0981965 0.0102943592 0 0.0102943592"></polygon>
            <polygon id="Fill-3" points="0 11.643517 29.0981965 11.643517 29.0981965 7.89437965 0 7.89437965"></polygon>
            <polygon id="Fill-4" points="8.31588956 19.5305474 20.7852737 19.5305474 20.7852737 15.7696296 8.31588956 15.7696296"></polygon>
            <polygon id="Fill-5" points="8.31588956 27.396962 20.7852737 27.396962 20.7852737 23.65666 8.31588956 23.65666"></polygon>
            <polygon id="Fill-6" points="8.31588956 35.275157 20.7852737 35.275157 20.7852737 31.5142392 8.31588956 31.5142392"></polygon>
            <polygon id="Fill-7" points="8.31588956 43.1680777 20.7852737 43.1680777 20.7852737 39.3924343 8.31588956 39.3924343"></polygon>
            <polygon id="Fill-8" points="0 51.0344922 29.0981965 51.0344922 29.0981965 47.2735744 0 47.2735744"></polygon>
            <polygon id="Fill-9" points="0 58.9067971 29.0981965 58.9067971 29.0981965 55.1576597 0 55.1576597"></polygon>
            <path d="M33.2466476,7.89290709 L78.0925222,7.89290709 C78.4752371,8.57322973 79.210999,10.746728 79.3890059,11.6449895 L33.2466476,11.6449895 L33.2466476,7.89290709 L33.2466476,7.89290709 Z" id="Fill-10"></path>
            <polygon id="Fill-12" points="41.576481 19.5305474 54.0250977 19.5305474 54.0250977 15.7696296 41.576481 15.7696296"></polygon>
            <path d="M66.5010088,15.7696296 L79.7892248,15.7696296 C79.8426269,16.6354948 79.4747459,18.685298 79.228503,19.5305474 L66.5010088,19.5305474 L66.5010088,15.7696296 Z" id="Fill-14"></path>
            <path d="M41.575591,31.5163008 L73.6079348,31.5163008 C74.6047735,32.2084039 76.2513374,34.1698536 77.0642356,35.2772186 L41.575591,35.2772186 L41.575591,31.5163008 Z" id="Fill-15"></path>
            <polygon id="Fill-16" points="41.576481 43.1680777 54.0250977 43.1680777 54.0250977 39.3924343 41.576481 39.3924343"></polygon>
            <path d="M66.5010088,39.3933178 L79.1573003,39.3933178 C79.4183771,39.9764515 79.8366933,42.3472728 79.8752615,43.1689612 L66.5010088,43.1689612 L66.5010088,39.3933178 Z" id="Fill-17"></path>
            <path d="M33.2466476,47.2741635 L79.3504378,47.2741635 C79.2822018,48.222492 78.5612738,50.3282525 78.1844925,51.0350813 L33.2466476,51.0350813 L33.2466476,47.2741635 Z" id="Fill-18"></path>
            <path d="M33.2466476,55.1550091 L74.9239992,55.1550091 C71.2303558,58.229714 67.9757961,58.9070916 62.2528739,58.9070916 L58.11718,58.9070916 L33.2466476,58.9070916 L33.2466476,55.1550091 Z" id="Fill-19"></path>
            <polygon id="Fill-20" points="83.1357547 0.000280952381 106.899677 0.000280952381 108.145726 3.76119874 83.1357547 3.76119874"></polygon>
            <polygon id="Fill-21" points="83.1357547 7.89290709 109.531213 7.89290709 110.774295 11.6449895 83.1357547 11.6449895"></polygon>
            <polygon id="Fill-22" points="91.4415572 15.7696296 112.173429 15.7696296 113.41651 19.5305474 91.4415572 19.5305474"></polygon>
            <polygon id="Fill-23" points="117.981794 23.6548929 141.324434 23.6548929 141.324434 27.3951949 128.852083 27.3951949 128.852083 24.0937158 127.709872 27.3951949 116.738713 27.3951949"></polygon>
            <polygon id="Fill-24" points="116.042409 27.397551 105.062349 27.397551 103.911238 24.075456 103.911238 27.397551 91.4418539 27.397551 91.4418539 23.657249 114.799328 23.657249"></polygon>
            <polygon id="Fill-25" points="91.4421506 35.275157 103.911535 35.275157 103.911535 31.5142392 91.4421506 31.5142392"></polygon>
            <polygon id="Fill-26" points="91.4421506 43.1680777 103.911535 43.1680777 103.911535 39.3924343 91.4421506 39.3924343"></polygon>
            <polygon id="Fill-27" points="83.1381282 51.0344922 103.914502 51.0344922 103.914502 47.2735744 83.1381282 47.2735744"></polygon>
            <polygon id="Fill-28" points="83.1381282 58.9067971 103.914502 58.9067971 103.914502 55.1547146 83.1381282 55.1547146"></polygon>
            <polygon id="Fill-29" points="125.893608 0.000280952381 149.627863 0.000280952381 149.627863 3.76119874 124.617892 3.76119874"></polygon>
            <polygon id="Fill-30" points="123.251392 7.89290709 149.62905 7.89290709 149.62905 11.6449895 121.993477 11.6449895"></polygon>
            <polygon id="Fill-31" points="120.624307 15.7696296 141.323544 15.7696296 141.323544 19.5305474 119.366392 19.5305474"></polygon>
            <polygon id="Fill-32" points="128.85327 35.275157 141.322654 35.275157 141.322654 31.5142392 128.85327 31.5142392"></polygon>
            <polygon id="Fill-33" points="128.85327 43.1680777 141.322654 43.1680777 141.322654 39.3924343 128.85327 39.3924343"></polygon>
            <polygon id="Fill-34" points="128.85327 51.0344922 149.629643 51.0344922 149.629643 47.2735744 128.85327 47.2735744"></polygon>
            <polygon id="Fill-35" points="128.85327 58.9067971 149.629643 58.9067971 149.629643 55.1547146 128.85327 55.1547146"></polygon>
            <polygon id="Fill-36" points="106.46178 31.5163008 126.327352 31.5163008 125.036802 35.2772186 107.74343 35.2772186"></polygon>
            <polygon id="Fill-37" points="109.142861 39.3933178 123.620757 39.3933178 122.339107 43.1689612 110.424511 43.1689612"></polygon>
            <polygon id="Fill-38" points="111.839369 47.2741635 120.941456 47.2741635 119.659806 51.0350813 113.129919 51.0350813"></polygon>
            <polygon id="Fill-39" points="114.535877 55.1550091 118.262155 55.1550091 116.968638 58.9070916 115.811593 58.9070916"></polygon>
            <path d="M41.575591,27.397551 L73.6079348,27.397551 C74.6433416,26.6818869 76.5687831,24.7057116 77.3431131,23.657249 L41.575591,23.657249 L41.575591,27.397551 Z" id="Fill-40"></path>
            <path d="M33.2466476,3.76237679 L74.9239992,3.76237679 C71.2303558,0.690616998 67.9757961,0.0161845985 62.2528739,0.0161845985 L58.11718,0.0161845985 L33.2466476,0.0161845985 L33.2466476,3.76237679 Z" id="Fill-41"></path>
        </g>
    </g>
</svg>