<?xml version="1.0" encoding="UTF-8"?>
<svg width="199px" height="79px" viewBox="0 0 199 79" version="1.1" xmlns="http://www.w3.org/2000/svg" xmlns:xlink="http://www.w3.org/1999/xlink">
    <!-- Generator: Sketch 48.2 (47327) - http://www.bohemiancoding.com/sketch -->
    <title>Page 1</title>
    <desc>Created with Sketch.</desc>
    <defs>
        <polygon id="path-1" points="0 78.5833333 199 78.5833333 199 0 0 0"></polygon>
    </defs>
    <g id="Artboard-1" stroke="none" stroke-width="1" fill="none" fill-rule="evenodd" transform="translate(-40.000000, -46.000000)">
        <g id="Page-1" transform="translate(40.000000, 46.000000)">
            <polygon id="Fill-1" fill="#4178BE" points="0 5.01566667 38.6986379 5.01566667 38.6986379 0.0136666667 0 0.0136666667"></polygon>
            <polygon id="Fill-3" fill="#4178BE" points="0 15.5355833 38.6986379 15.5355833 38.6986379 10.5301667 0 10.5301667"></polygon>
            <polygon id="Fill-4" fill="#4178BE" points="11.0582241 26.0555 27.6438448 26.0555 27.6438448 21.0398333 11.0582241 21.0398333"></polygon>
            <polygon id="Fill-5" fill="#4178BE" points="11.0582241 36.5515 27.6438448 36.5515 27.6438448 31.55975 11.0582241 31.55975"></polygon>
            <polygon id="Fill-6" fill="#4178BE" points="11.0582241 47.0611667 27.6438448 47.0611667 27.6438448 42.0455 11.0582241 42.0455"></polygon>
            <polygon id="Fill-7" fill="#4178BE" points="11.0582241 57.5913333 27.6438448 57.5913333 27.6438448 52.5551667 11.0582241 52.5551667"></polygon>
            <polygon id="Fill-8" fill="#4178BE" points="0 68.0873333 38.6986379 68.0873333 38.6986379 63.06825 0 63.06825"></polygon>
            <polygon id="Fill-9" fill="#4178BE" points="0 78.5901667 38.6986379 78.5901667 38.6986379 73.58475 0 73.58475"></polygon>
            <g id="Group-42" transform="translate(0.000000, 0.013667)">
                <path d="M44.2164276,10.5165 L103.8581,10.5165 C104.369324,11.4253333 105.347169,14.3226667 105.58391,15.5219167 L44.2164276,15.5219167 L44.2164276,10.5165 L44.2164276,10.5165 Z" id="Fill-10" fill="#4178BE"></path>
                <mask id="mask-2" fill="white">
                    <use xlink:href="#path-1"></use>
                </mask>
                <g id="Clip-13"></g>
                <polygon id="Fill-12" fill="#4178BE" mask="url(#mask-2)" points="55.2945517 26.0418333 71.8492931 26.0418333 71.8492931 21.0261667 55.2945517 21.0261667"></polygon>
                <path d="M88.4434914,21.0251417 L106.11675,21.0251417 C106.188802,22.179975 105.698164,24.9133083 105.368784,26.0408083 L88.4434914,26.0408083 L88.4434914,21.0251417 Z" id="Fill-14" fill="#4178BE" mask="url(#mask-2)"></path>
                <path d="M55.2938655,42.0332 L97.8970207,42.0332 C99.2214,42.9557 101.4104,45.5728667 102.491176,47.0488667 L55.2938655,47.0488667 L55.2938655,42.0332 Z" id="Fill-15" fill="#4178BE" mask="url(#mask-2)"></path>
                <polygon id="Fill-16" fill="#4178BE" mask="url(#mask-2)" points="55.2945517 57.5776667 71.8492931 57.5776667 71.8492931 52.5415 55.2945517 52.5415"></polygon>
                <path d="M88.4434914,52.5421833 L105.276147,52.5421833 C105.622681,53.3211833 106.178509,56.4816 106.229974,57.57835 L88.4434914,57.57835 L88.4434914,52.5421833 Z" id="Fill-17" fill="#4178BE" mask="url(#mask-2)"></path>
                <path d="M44.2164276,63.05595 L105.532445,63.05595 C105.439807,64.3201167 104.482548,67.1320333 103.981617,68.0750333 L44.2164276,68.0750333 L44.2164276,63.05595 Z" id="Fill-18" fill="#4178BE" mask="url(#mask-2)"></path>
                <path d="M44.2164276,73.5700583 L99.6447897,73.5700583 C94.7315483,77.673475 90.4050138,78.575475 82.7915483,78.575475 L77.295031,78.575475 L44.2164276,78.575475 L44.2164276,73.5700583 Z" id="Fill-19" fill="#4178BE" mask="url(#mask-2)"></path>
                <polygon id="Fill-20" fill="#4178BE" mask="url(#mask-2)" points="110.566802 -0.013325 142.173491 -0.013325 143.830681 5.00234167 110.566802 5.00234167"></polygon>
                <polygon id="Fill-21" fill="#4178BE" mask="url(#mask-2)" points="110.566802 10.5165 145.669716 10.5165 147.323474 15.5219167 110.566802 15.5219167"></polygon>
                <polygon id="Fill-22" fill="#4178BE" mask="url(#mask-2)" points="121.61336 21.0251417 149.185153 21.0251417 150.838912 26.0408083 121.61336 26.0408083"></polygon>
                <polygon id="Fill-23" fill="#4178BE" mask="url(#mask-2)" points="156.910471 31.5450583 187.954471 31.5450583 187.954471 36.5368083 171.36885 36.5368083 171.36885 32.1293083 169.848902 36.5368083 155.256712 36.5368083"></polygon>
                <polygon id="Fill-24" fill="#4178BE" mask="url(#mask-2)" points="154.331362 36.538175 139.728879 36.538175 138.198638 32.1067583 138.198638 36.538175 121.613017 36.538175 121.613017 31.546425 152.677603 31.546425"></polygon>
                <polygon id="Fill-25" fill="#4178BE" mask="url(#mask-2)" points="121.613017 47.0475 138.198638 47.0475 138.198638 42.0318333 121.613017 42.0318333"></polygon>
                <polygon id="Fill-26" fill="#4178BE" mask="url(#mask-2)" points="121.613017 57.5776667 138.198638 57.5776667 138.198638 52.5415 121.613017 52.5415"></polygon>
                <polygon id="Fill-27" fill="#4178BE" mask="url(#mask-2)" points="110.568517 68.0736667 138.198638 68.0736667 138.198638 63.0545833 110.568517 63.0545833"></polygon>
                <polygon id="Fill-28" fill="#4178BE" mask="url(#mask-2)" points="110.568517 78.5765 138.198638 78.5765 138.198638 73.5710833 110.568517 73.5710833"></polygon>
                <polygon id="Fill-29" fill="#4178BE" mask="url(#mask-2)" points="167.432767 -0.013325 198.998284 -0.013325 198.998284 5.00234167 165.737836 5.00234167"></polygon>
                <polygon id="Fill-30" fill="#4178BE" mask="url(#mask-2)" points="163.919045 10.5165 199.001372 10.5165 199.001372 15.5219167 162.2447 15.5219167"></polygon>
                <polygon id="Fill-31" fill="#4178BE" mask="url(#mask-2)" points="160.424879 21.0251417 187.952069 21.0251417 187.952069 26.0408083 158.750534 26.0408083"></polygon>
                <polygon id="Fill-32" fill="#4178BE" mask="url(#mask-2)" points="171.369879 47.0475 187.9555 47.0475 187.9555 42.0318333 171.369879 42.0318333"></polygon>
                <polygon id="Fill-33" fill="#4178BE" mask="url(#mask-2)" points="171.369879 57.5776667 187.9555 57.5776667 187.9555 52.5415 171.369879 52.5415"></polygon>
                <polygon id="Fill-34" fill="#4178BE" mask="url(#mask-2)" points="171.369879 68.0736667 199 68.0736667 199 63.0545833 171.369879 63.0545833"></polygon>
                <polygon id="Fill-35" fill="#4178BE" mask="url(#mask-2)" points="171.369879 78.5765 199 78.5765 199 73.5710833 171.369879 73.5710833"></polygon>
                <polygon id="Fill-36" fill="#4178BE" mask="url(#mask-2)" points="141.589529 42.0332 168.008495 42.0332 166.292978 47.0488667 143.294753 47.0488667"></polygon>
                <polygon id="Fill-37" fill="#4178BE" mask="url(#mask-2)" points="145.155403 52.5421833 164.410369 52.5421833 162.705145 57.57835 146.860628 57.57835"></polygon>
                <polygon id="Fill-38" fill="#4178BE" mask="url(#mask-2)" points="148.741521 63.05595 160.84621 63.05595 159.140986 68.0750333 150.457038 68.0750333"></polygon>
                <polygon id="Fill-39" fill="#4178BE" mask="url(#mask-2)" points="152.327638 73.5700583 157.282052 73.5700583 155.563103 78.575475 154.022569 78.575475"></polygon>
                <path d="M55.2938655,36.538175 L97.8970207,36.538175 C99.2728655,35.584925 101.832417,32.9472583 102.861728,31.546425 L55.2938655,31.546425 L55.2938655,36.538175 Z" id="Fill-40" fill="#4178BE" mask="url(#mask-2)"></path>
                <path d="M44.2164276,5.00575833 L99.6447897,5.00575833 C94.7315483,0.909175 90.4050138,0.007175 82.7915483,0.007175 L77.295031,0.007175 L44.2164276,0.007175 L44.2164276,5.00575833 Z" id="Fill-41" fill="#4178BE" mask="url(#mask-2)"></path>
            </g>
        </g>
    </g>
</svg>